<svg xmlns="http://www.w3.org/2000/svg" width="800" height="800" viewBox="0 0 24 24"><g fill-rule="nonzero"><path fill="#ffffff" d="M6.8573 2.4449c1.142.833 2.0319 1.9706 2.7927 3.0583l.442.6437.417.6148c.4284.6266.3261 1.4823-.2559 1.986l-1.9511 1.449c-.1934.1437-.2577.4047-.1417.6158.4414.8036 1.2279 1.9994 2.1279 2.8994.9009.9009 2.1532 1.7381 3.012 2.2293.2227.1273.5028.0536.6436-.1609l1.2693-1.9335c.4868-.6477 1.3957-.7892 2.0564-.3319l.6638.4587c1.2385.86 2.5705 1.837 3.5877 3.1397.3416.4374.3923 1.0094.1886 1.4848-.8368 1.9526-2.9544 3.6155-5.1572 3.5344l-.3005-.0167-.233-.02-.2578-.029-.2815-.039-.3043-.0507a11.659 11.659 0 0 1-.1604-.03l-.3363-.0706a12.3985 12.3985 0 0 1-.1758-.0409l-.366-.0936-.3846-.1108-.402-.1293c-1.8463-.6255-4.189-1.8554-6.5928-4.2592-2.4038-2.4038-3.6337-4.7466-4.2593-6.593l-.1292-.4019-.1108-.3845-.0937-.366-.0779-.3466a11.7895 11.7895 0 0 1-.0636-.326l-.0506-.3042-.039-.2816-.029-.2578-.02-.233-.0168-.3004C1.7868 5.2522 3.4685 3.119 5.4121 2.286c.4561-.1955 1.0085-.1597 1.4452.1588Zm8.1344 3.5946.116.0136a3.5004 3.5004"/></g></svg>