<svg xmlns="http://www.w3.org/2000/svg" xml:space="preserve" width="800" height="800" viewBox="0 0 436.24 436.239"><path d="M396.64 211.551c-12.75 0-23.084 10.336-23.084 23.084 0 85.708-69.73 155.437-155.439 155.437-85.709 0-155.437-69.729-155.437-155.437S132.41 79.197 218.118 79.197c5.504 0 10.98.293 16.411.862l-13.607 24.446a9.231 9.231 0 0 0 .146 9.232 9.23 9.23 0 0 0 7.922 4.492c.049 0 .098 0 .146-.002l114.146-1.792a9.24 9.24 0 0 0 7.924-4.741 9.236 9.236 0 0 0-.145-9.233L292.443 4.493c-1.695-2.83-4.756-4.563-8.068-4.491a9.236 9.236 0 0 0-7.924 4.742l-17.996 32.332a202.485 202.485 0 0 0-40.335-4.049c-53.851 0-104.479 20.971-142.557 59.049-38.078 38.078-59.049 88.706-59.049 142.558 0 53.851 20.971 104.479 59.049 142.557 38.078 38.078 88.705 59.049 142.556 59.049 53.85 0 104.479-20.971 142.557-59.049s59.051-88.706 59.051-142.558c-.003-12.746-10.339-23.082-23.087-23.082z"/><path d="M317.91 333.346c-2.557-6.568-4.311-10.745-4.311-10.745-2.309-5.521-7.861-9.056-13.162-11.229l-35.835-16.498-17.214-14.518-27.662 27.513 9.98 66.722c34.376-2.823 65.282-18.074 88.204-41.245zM135.8 311.37c-5.302 2.175-11.07 5.95-13.162 11.229 0 0-1.754 4.178-4.311 10.745 22.922 23.171 53.828 38.423 88.203 41.243l9.979-66.722-27.661-27.513-17.214 14.518-35.834 16.5zM282.738 188.425c.396-39.734-18.527-63.515-64.621-63.515-46.094 0-65.021 23.779-64.618 63.515.622 57.262 27.969 91.406 64.618 91.406 36.648 0 63.998-34.145 64.621-91.406z"/></svg>